<svg width="23" height="23" viewBox="0 0 23 23" fill="none" xmlns="http://www.w3.org/2000/svg">
<path d="M16.212 9.00907H13.8105V5.4069H9.00761V9.00907H6.60616L11.4091 13.812L16.212 9.00907ZM19.8141 15.0127H15.0112C15.0112 15.968 14.6317 16.8843 13.9562 17.5598C13.2806 18.2354 12.3644 18.6149 11.4091 18.6149C10.4537 18.6149 9.53747 18.2354 8.86194 17.5598C8.1864 16.8843 7.80688 15.968 7.80688 15.0127H3.00399V3.00545H19.8141V15.0127ZM19.8141 0.604004H3.00399C1.67118 0.604004 0.602539 1.68466 0.602539 3.00545V19.8156C0.602539 20.4525 0.855548 21.0633 1.30591 21.5137C1.75627 21.964 2.36708 22.217 3.00399 22.217H19.8141C20.451 22.217 21.0618 21.964 21.5122 21.5137C21.9626 21.0633 22.2156 20.4525 22.2156 19.8156V3.00545C22.2156 2.36855 21.9626 1.75773 21.5122 1.30737C21.0618 0.857013 20.451 0.604004 19.8141 0.604004Z" fill="#505064"/>
</svg>
