<svg width="30" height="20" viewBox="0 0 30 20" fill="none" xmlns="http://www.w3.org/2000/svg">
<path d="M21.3741 9.99909C21.8392 9.99909 22.2997 9.90749 22.7294 9.7295C23.1591 9.55152 23.5496 9.29064 23.8784 8.96177C24.2073 8.63289 24.4682 8.24246 24.6462 7.81277C24.8242 7.38307 24.9158 6.92253 24.9158 6.45743C24.9158 5.51812 24.5426 4.61728 23.8784 3.95309C23.2142 3.2889 22.3134 2.91576 21.3741 2.91576C20.4348 2.91576 19.534 3.2889 18.8698 3.95309C18.2056 4.61728 17.8324 5.51812 17.8324 6.45743C17.8324 6.92253 17.924 7.38307 18.102 7.81277C18.28 8.24246 18.5409 8.63289 18.8698 8.96177C19.534 9.62596 20.4348 9.99909 21.3741 9.99909ZM10.7491 8.58243C11.8763 8.58243 12.9573 8.13466 13.7543 7.33763C14.5513 6.5406 14.9991 5.4596 14.9991 4.33243C14.9991 3.20526 14.5513 2.12425 13.7543 1.32722C12.9573 0.530195 11.8763 0.082428 10.7491 0.082428C9.62193 0.082428 8.54092 0.530195 7.74389 1.32722C6.94686 2.12425 6.49909 3.20526 6.49909 4.33243C6.49909 5.4596 6.94686 6.5406 7.74389 7.33763C8.54092 8.13466 9.62193 8.58243 10.7491 8.58243ZM21.3741 12.8324C18.7816 12.8324 13.5824 14.1358 13.5824 16.7283V19.9158H29.1658V16.7283C29.1658 14.1358 23.9666 12.8324 21.3741 12.8324ZM10.7491 11.4158C7.44826 11.4158 0.832428 13.0733 0.832428 16.3741V19.9158H10.7491V16.7283C10.7491 15.5241 11.2166 13.4133 14.1066 11.8124C12.8741 11.5574 11.6841 11.4158 10.7491 11.4158Z" fill="#505064"/>
</svg>
