<svg width="29" height="29" viewBox="0 0 29 29" fill="none" xmlns="http://www.w3.org/2000/svg">
<path d="M14.5008 4.83194C15.7827 4.83194 17.012 5.34116 17.9185 6.24759C18.8249 7.15401 19.3341 8.38339 19.3341 9.66527C19.3341 10.9471 18.8249 12.1765 17.9185 13.083C17.012 13.9894 15.7827 14.4986 14.5008 14.4986C13.2189 14.4986 11.9895 13.9894 11.0831 13.083C10.1767 12.1765 9.66744 10.9471 9.66744 9.66527C9.66744 8.38339 10.1767 7.15401 11.0831 6.24759C11.9895 5.34116 13.2189 4.83194 14.5008 4.83194ZM14.5008 16.9153C19.8416 16.9153 24.1674 19.0782 24.1674 21.7486V24.1653H4.83411V21.7486C4.83411 19.0782 9.15994 16.9153 14.5008 16.9153Z" fill="#505064"/>
</svg>
